<svg id="SvgjsSvg1044" width="288" height="288" xmlns="http://www.w3.org/2000/svg" version="1.1" xmlns:xlink="http://www.w3.org/1999/xlink" xmlns:svgjs="http://svgjs.com/svgjs"><defs id="SvgjsDefs1045"></defs><g id="SvgjsG1046" transform="matrix(1,0,0,1,0,0)"><svg xmlns="http://www.w3.org/2000/svg" viewBox="0 0 64 64" width="288" height="288"><path d="M57,6H51V5a3.0033,3.0033,0,0,0-3-3H46a3.0033,3.0033,0,0,0-3,3V6H21V5a3.0033,3.0033,0,0,0-3-3H16a3.0033,3.0033,0,0,0-3,3V6H7a4.0039,4.0039,0,0,0-4,4V58a4.0039,4.0039,0,0,0,4,4H57a4.0039,4.0039,0,0,0,4-4V10A4.0039,4.0039,0,0,0,57,6ZM45,7V5a1.0006,1.0006,0,0,1,1-1h2a1.0006,1.0006,0,0,1,1,1v8a1.0006,1.0006,0,0,1-1,1H46a1.0006,1.0006,0,0,1-1-1ZM15,7V5a1.0006,1.0006,0,0,1,1-1h2a1.0006,1.0006,0,0,1,1,1v8a1.0006,1.0006,0,0,1-1,1H16a1.0006,1.0006,0,0,1-1-1ZM59,58a2.0027,2.0027,0,0,1-2,2H7a2.0027,2.0027,0,0,1-2-2V22H59Zm0-38H5V10A2.0027,2.0027,0,0,1,7,8h6v5a3.0033,3.0033,0,0,0,3,3h2a3.0033,3.0033,0,0,0,3-3V8H43v5a3.0033,3.0033,0,0,0,3,3h2a3.0033,3.0033,0,0,0,3-3V8h6a2.0027,2.0027,0,0,1,2,2Z" fill="#ffffff" class="color000 svgShape"></path><path d="M14.7734 54h11.586a3.0705 3.0705 0 0 0 3.0537-3.3828 3.1622 3.1622 0 0 0-3.1719-2.7549H17.0146v-3.793h9.3448a3.901 3.901 0 0 0 3.8965-3.8964V31.8965A3.901 3.901 0 0 0 26.3594 28H14.7734A3.07 3.07 0 0 0 11.72 31.3818a3.1606 3.1606 0 0 0 3.1709 2.7559h9.2276v3.793H14.7734a3.9009 3.9009 0 0 0-3.8964 3.8964v8.2764A3.9009 3.9009 0 0 0 14.7734 54zM12.877 41.8271a1.8983 1.8983 0 0 1 1.8964-1.8964H24.29a1.83 1.83 0 0 0 1.8282-1.8272V33.9658A1.83 1.83 0 0 0 24.29 32.1377H14.8906a1.1608 1.1608 0 0 1-1.1806-.9551A1.0688 1.0688 0 0 1 14.7734 30h11.586a1.8984 1.8984 0 0 1 1.8965 1.8965v8.2764a1.8983 1.8983 0 0 1-1.8965 1.8964H16.8418a1.8289 1.8289 0 0 0-1.8272 1.8272v4.1377a1.83 1.83 0 0 0 1.8272 1.8281h9.3994a1.1622 1.1622 0 0 1 1.1817.9541 1.0708 1.0708 0 0 1-.2706.832A1.06 1.06 0 0 1 26.3594 52H14.7734a1.8983 1.8983 0 0 1-1.8964-1.8965zM37.6406 44.0693h9.3448v3.793H37.7588a3.1622 3.1622 0 0 0-3.1719 2.7549v.0019A3.07 3.07 0 0 0 37.6406 54h11.586a3.9009 3.9009 0 0 0 3.8964-3.8965V41.8271a3.9009 3.9009 0 0 0-3.8964-3.8964H39.8818v-3.793h9.2276A3.1606 3.1606 0 0 0 52.28 31.3818 3.07 3.07 0 0 0 49.2266 28H37.6406a3.901 3.901 0 0 0-3.8965 3.8965v8.2764A3.901 3.901 0 0 0 37.6406 44.0693zM35.7441 31.8965A1.8984 1.8984 0 0 1 37.6406 30h11.586A1.0688 1.0688 0 0 1 50.29 31.1826a1.1608 1.1608 0 0 1-1.1806.9551H39.71a1.83 1.83 0 0 0-1.8282 1.8281v4.1377A1.83 1.83 0 0 0 39.71 39.9307h9.5166a1.8983 1.8983 0 0 1 1.8964 1.8964v8.2764A1.8983 1.8983 0 0 1 49.2266 52H37.6406a1.06 1.06 0 0 1-.7929-.3516 1.0708 1.0708 0 0 1-.2706-.832 1.1628 1.1628 0 0 1 1.1817-.9541h9.3994a1.83 1.83 0 0 0 1.8272-1.8281V43.8965a1.8289 1.8289 0 0 0-1.8272-1.8272H37.6406a1.8983 1.8983 0 0 1-1.8965-1.8964z" fill="#ffffff" class="color000 svgShape"></path></svg></g></svg>