<svg id="SvgjsSvg1017" width="288" height="288" xmlns="http://www.w3.org/2000/svg" version="1.1" xmlns:xlink="http://www.w3.org/1999/xlink" xmlns:svgjs="http://svgjs.com/svgjs"><defs id="SvgjsDefs1018"></defs><g id="SvgjsG1019" transform="matrix(1,0,0,1,0,0)"><svg xmlns="http://www.w3.org/2000/svg" width="288" height="288" enable-background="new 0 0 512 512" viewBox="0 0 512 512"><path d="M229.222 235.922h-202.5c-3.705 0-6.708-3.003-6.708-6.708V26.814c0-3.705 3.003-6.708 6.708-6.708h202.5c3.705 0 6.708 3.003 6.708 6.708v202.399C235.93 232.919 232.927 235.922 229.222 235.922zM33.431 222.506h189.083V33.522H33.431V222.506zM486.227 492.847H283.729c-3.705 0-6.709-3.003-6.709-6.708V283.74c0-3.705 3.004-6.708 6.709-6.708h202.498c3.705 0 6.708 3.003 6.708 6.708v202.398C492.935 489.844 489.932 492.847 486.227 492.847zM290.437 479.431h189.082V290.448H290.437V479.431zM486.227 235.922H283.729c-3.705 0-6.709-3.003-6.709-6.708V26.814c0-3.705 3.004-6.708 6.709-6.708h202.498c3.705 0 6.708 3.003 6.708 6.708v202.399C492.935 232.919 489.932 235.922 486.227 235.922zM290.437 222.506h189.082V33.522H290.437V222.506zM229.222 492.847h-202.5c-3.705 0-6.708-3.003-6.708-6.708V283.74c0-3.705 3.003-6.708 6.708-6.708h202.5c3.705 0 6.708 3.003 6.708 6.708v202.398C235.93 489.844 232.927 492.847 229.222 492.847zM33.431 479.431h189.083V290.448H33.431V479.431z" fill="#ffffff" class="color000 svgShape"></path></svg></g></svg>